<svg width="40" height="40" viewBox="0 0 40 40" fill="none" xmlns="http://www.w3.org/2000/svg">
<rect width="40" height="40" rx="20" fill="white"/>
<path d="M17.2443 23.928C17.4635 22.7889 17.7584 21.9836 19.7922 21.0802C21.4784 21.9836 21.4635 22.7889 21.2443 23.928L21.0554 24.91H24.0554L24.2443 23.928C24.5202 22.4943 24.1673 21.0016 22.6952 19.9214C24.5716 18.9002 25.4799 17.5057 25.7557 16.072L25.9447 15.09H22.9447L22.7557 16.072C22.5366 17.2111 22.2681 17.8789 20.2419 18.7431C18.5481 17.8789 18.5366 17.2111 18.7557 16.072L18.9447 15.09H15.9447L15.7557 16.072C15.4799 17.5057 15.8516 18.9002 17.3352 19.9214C15.4473 21.0016 14.5202 22.4943 14.2443 23.928L14.0554 24.91H17.0554L17.2443 23.928Z" fill="#C0160A"/>
</svg>
