<svg width="22" height="24" viewBox="0 0 22 24" fill="none" xmlns="http://www.w3.org/2000/svg">
<path d="M11.5256 0.0197559C12.8356 -0.000244141 14.1356 0.00975586 15.4356 -0.000244141C15.5156 1.52976 16.0656 3.08976 17.1856 4.16976C18.3056 5.27976 19.8856 5.78976 21.4256 5.95976V9.98976C19.9856 9.93976 18.5356 9.63976 17.2256 9.01976C16.6556 8.75976 16.1256 8.42976 15.6056 8.08976C15.5956 11.0098 15.6156 13.9298 15.5856 16.8398C15.5056 18.2398 15.0456 19.6298 14.2356 20.7798C12.9256 22.6998 10.6556 23.9498 8.32561 23.9898C6.89561 24.0698 5.46561 23.6798 4.24561 22.9598C2.22561 21.7698 0.805609 19.5898 0.595609 17.2498C0.575609 16.7498 0.565609 16.2498 0.585609 15.7598C0.765609 13.8598 1.70561 12.0398 3.16561 10.7998C4.82561 9.35976 7.14561 8.66976 9.31561 9.07976C9.33561 10.5598 9.27561 12.0398 9.27561 13.5198C8.28561 13.1998 7.12561 13.2898 6.25561 13.8898C5.62561 14.2998 5.14561 14.9298 4.89561 15.6398C4.68561 16.1498 4.74561 16.7098 4.75561 17.2498C4.99561 18.8898 6.57561 20.2698 8.25561 20.1198C9.37561 20.1098 10.4456 19.4598 11.0256 18.5098C11.2156 18.1798 11.4256 17.8398 11.4356 17.4498C11.5356 15.6598 11.4956 13.8798 11.5056 12.0898C11.5156 8.05976 11.4956 4.03976 11.5256 0.0197559Z" fill="white"/>
</svg>
