<svg width="24" height="20" viewBox="0 0 24 20" fill="none" xmlns="http://www.w3.org/2000/svg">
<path d="M23.953 2.57033C23.0545 2.96594 22.1026 3.22707 21.128 3.34533C22.1541 2.72858 22.9224 1.76138 23.291 0.622331C22.34 1.17733 21.286 1.58133 20.164 1.80633C19.4238 1.01476 18.4429 0.489753 17.3736 0.312833C16.3044 0.135913 15.2067 0.316982 14.2509 0.827922C13.2952 1.33886 12.5349 2.15108 12.0881 3.13845C11.6412 4.12583 11.533 5.2331 11.78 6.28833C7.69 6.09533 4.067 4.13033 1.64 1.16233C1.19879 1.91214 0.968664 2.76736 0.974 3.63733C0.974 5.34733 1.844 6.85033 3.162 7.73333C2.38086 7.70847 1.61697 7.49727 0.934 7.11733V7.17733C0.933557 8.31372 1.32627 9.41527 2.04551 10.2951C2.76474 11.1749 3.76621 11.7788 4.88 12.0043C4.1583 12.1977 3.40241 12.2268 2.668 12.0893C2.98412 13.0673 3.59766 13.9223 4.42301 14.5348C5.24837 15.1474 6.24435 15.487 7.272 15.5063C5.53153 16.8723 3.38248 17.6136 1.17 17.6113C0.78 17.6113 0.391 17.5883 0 17.5443C2.25571 18.9887 4.87851 19.7553 7.557 19.7533C16.61 19.7533 21.555 12.2573 21.555 5.76833C21.555 5.55833 21.555 5.34833 21.54 5.13833C22.506 4.44319 23.3392 3.58015 24 2.59033L23.953 2.57033Z" fill="white"/>
</svg>
