<svg width="24" height="24" viewBox="0 0 24 24" fill="none" xmlns="http://www.w3.org/2000/svg">
<path d="M9.489 0.00348828L10.218 0.000488281H13.782L14.512 0.00348828L15.426 0.0134883L15.859 0.0204883L16.277 0.0314883L16.68 0.0454883L17.068 0.0614883L17.442 0.0824883L17.802 0.107488L18.147 0.137488L18.48 0.170488C20.22 0.366488 21.413 0.786488 22.313 1.68649C23.213 2.58649 23.633 3.77849 23.829 5.51949L23.863 5.85249L23.892 6.19849L23.917 6.55849L23.937 6.93149L23.962 7.51949L23.974 7.92949L23.987 8.57349L23.996 9.48849L24 10.4685L23.999 13.7815L23.996 14.5115L23.986 15.4255L23.979 15.8585L23.968 16.2765L23.954 16.6795L23.938 17.0675L23.917 17.4415L23.892 17.8015L23.862 18.1465L23.829 18.4795C23.633 20.2195 23.213 21.4125 22.313 22.3125C21.413 23.2125 20.221 23.6325 18.48 23.8285L18.147 23.8625L17.801 23.8915L17.441 23.9165L17.068 23.9365L16.48 23.9615L16.07 23.9735L15.426 23.9865L14.511 23.9955L13.531 23.9995L10.218 23.9985L9.488 23.9955L8.574 23.9855L8.141 23.9785L7.723 23.9675L7.32 23.9535L6.932 23.9375L6.558 23.9165L6.198 23.8915L5.853 23.8615L5.52 23.8285C3.78 23.6325 2.587 23.2125 1.687 22.3125C0.787 21.4125 0.367 20.2205 0.171 18.4795L0.137 18.1465L0.108 17.8005L0.083 17.4405L0.063 17.0675L0.038 16.4795L0.026 16.0695L0.013 15.4255L0.004 14.5105L0 13.5305L0.001 10.2175L0.004 9.48749L0.014 8.57349L0.021 8.14049L0.032 7.72249L0.046 7.31949L0.062 6.93149L0.083 6.55749L0.108 6.19749L0.138 5.85249L0.171 5.51949C0.367 3.77949 0.787 2.58649 1.687 1.68649C2.587 0.786488 3.779 0.366488 5.52 0.170488L5.853 0.136488L6.199 0.107488L6.559 0.0824883L6.932 0.0624883L7.52 0.0374883L7.93 0.0254883L8.574 0.0124883L9.489 0.00348828ZM6.79 7.29949H4.05C4.18 13.5395 7.3 17.2895 12.77 17.2895H13.08V13.7195C15.09 13.9195 16.61 15.3895 17.22 17.2895H20.06C19.28 14.4495 17.23 12.8795 15.95 12.2795C17.23 11.5395 19.03 9.73949 19.46 7.29949H16.88C16.32 9.27949 14.66 11.0795 13.08 11.2495V7.29949H10.5V14.2195C8.9 13.8195 6.88 11.8795 6.79 7.29949Z" fill="white"/>
</svg>
